<?xml version="1.0" encoding="utf-8"?>
<!-- Generator: Adobe Illustrator 24.2.1, SVG Export Plug-In . SVG Version: 6.00 Build 0)  -->
<svg version="1.1"
	 id="svg3871" inkscape:export-filename="/home/pixel/Dropbox/compartilhadas/ecolab/produtos/mapas-coletivos/mapas-coletivos_logo.png" inkscape:export-xdpi="451.69119" inkscape:export-ydpi="451.69119" inkscape:version="0.48.4 r9939" sodipodi:docname="mapas-coletivos_logo.svg" xmlns:cc="http://creativecommons.org/ns#" xmlns:dc="http://purl.org/dc/elements/1.1/" xmlns:inkscape="http://www.inkscape.org/namespaces/inkscape" xmlns:rdf="http://www.w3.org/1999/02/22-rdf-syntax-ns#" xmlns:sodipodi="http://sodipodi.sourceforge.net/DTD/sodipodi-0.dtd" xmlns:svg="http://www.w3.org/2000/svg"
	 xmlns="http://www.w3.org/2000/svg" xmlns:xlink="http://www.w3.org/1999/xlink" x="0px" y="0px" viewBox="0 0 79 79"
	 style="enable-background:new 0 0 79 79;" xml:space="preserve">
<style type="text/css">
	.st0{fill:#FFFFFF;stroke:#FFFFFF;stroke-width:0.7791;}
	.st1{fill-rule:evenodd;clip-rule:evenodd;fill:#76ACDE;}
	.st2{fill:#A4CBF0;stroke:#FFFFFF;stroke-width:1.1182;stroke-miterlimit:4.4727;}
	.st3{fill:#A4CBF0;stroke:#FFFFFF;stroke-width:1.8272;stroke-miterlimit:7.3089;}
	.st4{fill:#A4CBF0;stroke:#FFFFFF;stroke-width:2.3785;stroke-miterlimit:9.514;}
</style>
<sodipodi:namedview  bordercolor="#666666" borderopacity="1.0" id="base" inkscape:current-layer="layer1" inkscape:cx="396.82974" inkscape:cy="470.43501" inkscape:document-units="px" inkscape:pageopacity="0.0" inkscape:pageshadow="2" inkscape:window-height="744" inkscape:window-maximized="1" inkscape:window-width="1366" inkscape:window-x="0" inkscape:window-y="24" inkscape:zoom="1.6140423" pagecolor="#ffffff" showgrid="false">
	</sodipodi:namedview>
<g id="layer1" inkscape:groupmode="layer" inkscape:label="Camada 1">
	
		<rect id="rect3917" x="-5.6" y="-4.5" inkscape:export-xdpi="301.35999" inkscape:export-ydpi="301.35999" class="st0" width="88.8" height="88.8">
	</rect>
	<g id="g3911" transform="translate(108.90167,17.489061)">
		
			<path id="path3049" sodipodi:cx="32.124207" sodipodi:cy="45.112" sodipodi:rx="23.856947" sodipodi:ry="23.856947" sodipodi:type="arc" class="st1" d="
			M-40,29.4c0,13.7-11.1,24.8-24.8,24.8s-24.8-11.1-24.8-24.8S-78.5,4.6-64.8,4.6S-40,15.7-40,29.4z"/>
		
			<path id="path3819" sodipodi:cx="61.295822" sodipodi:cy="-0.0036136832" sodipodi:rx="6.4957037" sodipodi:ry="6.1413927" sodipodi:type="arc" class="st2" d="
			M-57.4-9.8c0,3.8-3.3,6.9-7.3,6.9S-72-6-72-9.8s3.3-6.9,7.3-6.9S-57.4-13.6-57.4-9.8z"/>
		
			<path id="path3819-0" sodipodi:cx="61.295822" sodipodi:cy="-0.0036136832" sodipodi:rx="6.4957037" sodipodi:ry="6.1413927" sodipodi:type="arc" class="st3" d="
			M-73.1,7.4c0,6.2-5.3,11.2-11.9,11.2s-11.9-5-11.9-11.2S-91.6-3.8-85-3.8S-73.1,1.2-73.1,7.4z"/>
		
			<path id="path3819-0-6" sodipodi:cx="61.295822" sodipodi:cy="-0.0036136832" sodipodi:rx="6.4957037" sodipodi:ry="6.1413927" sodipodi:type="arc" class="st4" d="
			M-68.8,46.7c0,8.1-6.9,14.6-15.5,14.6s-15.5-6.5-15.5-14.6s6.9-14.6,15.5-14.6S-68.8,38.7-68.8,46.7z"/>
	</g>
</g>
</svg>
